<?xml version="1.0" encoding="UTF-8"?>
<svg xmlns="http://www.w3.org/2000/svg" xmlns:xlink="http://www.w3.org/1999/xlink" width="1129pt" height="517pt" viewBox="0 0 1129 517" version="1.1">
<g id="surface3466">
<rect x="0" y="0" width="1129" height="517" style="fill:rgb(90%,90%,90%);fill-opacity:1;stroke:none;"/>
<path style="fill-rule:nonzero;fill:rgb(0%,0%,0%);fill-opacity:1;stroke-width:1;stroke-linecap:butt;stroke-linejoin:miter;stroke:rgb(0%,0%,0%);stroke-opacity:1;stroke-miterlimit:10;" d="M 425 206 L 405 206 L 405 216 L 425 216 L 425 236 L 435 236 L 435 216 L 455 216 L 455 206 L 435 206 L 435 186 L 425 186 L 425 206 "/>
<path style="fill-rule:nonzero;fill:rgb(0%,0%,0%);fill-opacity:1;stroke-width:1;stroke-linecap:butt;stroke-linejoin:miter;stroke:rgb(0%,0%,0%);stroke-opacity:1;stroke-miterlimit:10;" d="M 135 112 L 115 112 L 115 122 L 135 122 L 135 142 L 145 142 L 145 122 L 165 122 L 165 112 L 145 112 L 145 92 L 135 92 L 135 112 "/>
<path style="fill-rule:nonzero;fill:rgb(0%,0%,0%);fill-opacity:1;stroke-width:1;stroke-linecap:butt;stroke-linejoin:miter;stroke:rgb(0%,0%,0%);stroke-opacity:1;stroke-miterlimit:10;" d="M 449 382 L 429 382 L 429 392 L 449 392 L 449 412 L 459 412 L 459 392 L 479 392 L 479 382 L 459 382 L 459 362 L 449 362 L 449 382 "/>
<path style="fill-rule:nonzero;fill:rgb(0%,0%,0%);fill-opacity:1;stroke-width:1;stroke-linecap:butt;stroke-linejoin:miter;stroke:rgb(0%,0%,0%);stroke-opacity:1;stroke-miterlimit:10;" d="M 333 443 L 313 443 L 313 453 L 333 453 L 333 473 L 343 473 L 343 453 L 363 453 L 363 443 L 343 443 L 343 423 L 333 423 L 333 443 "/>
<path style="fill-rule:nonzero;fill:rgb(0%,0%,0%);fill-opacity:1;stroke-width:1;stroke-linecap:butt;stroke-linejoin:miter;stroke:rgb(0%,0%,0%);stroke-opacity:1;stroke-miterlimit:10;" d="M 343 87 L 323 87 L 323 97 L 343 97 L 343 117 L 353 117 L 353 97 L 373 97 L 373 87 L 353 87 L 353 67 L 343 67 L 343 87 "/>
<path style="fill-rule:nonzero;fill:rgb(100%,100%,0%);fill-opacity:1;stroke-width:1;stroke-linecap:butt;stroke-linejoin:miter;stroke:rgb(0%,0%,0%);stroke-opacity:1;stroke-miterlimit:10;" d="M 247 63 L 227 63 L 227 73 L 247 73 L 247 93 L 257 93 L 257 73 L 277 73 L 277 63 L 257 63 L 257 43 L 247 43 L 247 63 "/>
<path style="fill-rule:nonzero;fill:rgb(100%,100%,0%);fill-opacity:1;stroke-width:1;stroke-linecap:butt;stroke-linejoin:miter;stroke:rgb(0%,0%,0%);stroke-opacity:1;stroke-miterlimit:10;" d="M 125 418 L 105 418 L 105 428 L 125 428 L 125 448 L 135 448 L 135 428 L 155 428 L 155 418 L 135 418 L 135 398 L 125 398 L 125 418 "/>
<path style="fill-rule:nonzero;fill:rgb(0%,0%,0%);fill-opacity:1;stroke-width:1;stroke-linecap:butt;stroke-linejoin:miter;stroke:rgb(0%,0%,0%);stroke-opacity:1;stroke-miterlimit:10;" d="M 748 165.601562 C 748 151.199219 724 151.199219 724 165.601562 C 724 180 748 182.398438 748 194.398438 C 748 182.398438 772 180 772 165.601562 C 772 151.199219 748 151.199219 748 165.601562 "/>
<path style="fill-rule:nonzero;fill:rgb(0%,0%,0%);fill-opacity:1;stroke-width:1;stroke-linecap:butt;stroke-linejoin:miter;stroke:rgb(0%,0%,0%);stroke-opacity:1;stroke-miterlimit:10;" d="M 683 89.601562 C 683 75.199219 659 75.199219 659 89.601562 C 659 104 683 106.398438 683 118.398438 C 683 106.398438 707 104 707 89.601562 C 707 75.199219 683 75.199219 683 89.601562 "/>
<path style="fill-rule:nonzero;fill:rgb(0%,0%,0%);fill-opacity:1;stroke-width:1;stroke-linecap:butt;stroke-linejoin:miter;stroke:rgb(0%,0%,0%);stroke-opacity:1;stroke-miterlimit:10;" d="M 836 52.601562 C 836 38.199219 812 38.199219 812 52.601562 C 812 67 836 69.398438 836 81.398438 C 836 69.398438 860 67 860 52.601562 C 860 38.199219 836 38.199219 836 52.601562 "/>
<path style="fill-rule:nonzero;fill:rgb(0%,0%,0%);fill-opacity:1;stroke-width:1;stroke-linecap:butt;stroke-linejoin:miter;stroke:rgb(0%,0%,0%);stroke-opacity:1;stroke-miterlimit:10;" d="M 728 255.601562 C 728 241.199219 704 241.199219 704 255.601562 C 704 270 728 272.398438 728 284.398438 C 728 272.398438 752 270 752 255.601562 C 752 241.199219 728 241.199219 728 255.601562 "/>
<path style="fill-rule:nonzero;fill:rgb(100%,100%,0%);fill-opacity:1;stroke-width:1;stroke-linecap:butt;stroke-linejoin:miter;stroke:rgb(0%,0%,0%);stroke-opacity:1;stroke-miterlimit:10;" d="M 957 100.601562 C 957 86.199219 933 86.199219 933 100.601562 C 933 115 957 117.398438 957 129.398438 C 957 117.398438 981 115 981 100.601562 C 981 86.199219 957 86.199219 957 100.601562 "/>
<path style="fill-rule:nonzero;fill:rgb(100%,100%,0%);fill-opacity:1;stroke-width:1;stroke-linecap:butt;stroke-linejoin:miter;stroke:rgb(0%,0%,0%);stroke-opacity:1;stroke-miterlimit:10;" d="M 920 301.601562 C 920 287.199219 896 287.199219 896 301.601562 C 896 316 920 318.398438 920 330.398438 C 920 318.398438 944 316 944 301.601562 C 944 287.199219 920 287.199219 920 301.601562 "/>
</g>
</svg>
