<?xml version="1.0" encoding="UTF-8"?>
<svg xmlns="http://www.w3.org/2000/svg" xmlns:xlink="http://www.w3.org/1999/xlink" width="1129pt" height="517pt" viewBox="0 0 1129 517" version="1.1">
<g id="surface3896">
<rect x="0" y="0" width="1129" height="517" style="fill:rgb(90%,90%,90%);fill-opacity:1;stroke:none;"/>
<path style="fill-rule:nonzero;fill:rgb(55%,51%,53%);fill-opacity:1;stroke-width:1;stroke-linecap:butt;stroke-linejoin:miter;stroke:rgb(0%,0%,0%);stroke-opacity:1;stroke-miterlimit:10;" d="M 51 446 L 31 446 L 31 456 L 51 456 L 51 476 L 61 476 L 61 456 L 81 456 L 81 446 L 61 446 L 61 426 L 51 426 L 51 446 "/>
<path style="fill-rule:nonzero;fill:rgb(55%,51%,53%);fill-opacity:1;stroke-width:1;stroke-linecap:butt;stroke-linejoin:miter;stroke:rgb(0%,0%,0%);stroke-opacity:1;stroke-miterlimit:10;" d="M 248 465 L 228 465 L 228 475 L 248 475 L 248 495 L 258 495 L 258 475 L 278 475 L 278 465 L 258 465 L 258 445 L 248 445 L 248 465 "/>
<path style="fill-rule:nonzero;fill:rgb(55%,51%,53%);fill-opacity:1;stroke-width:1;stroke-linecap:butt;stroke-linejoin:miter;stroke:rgb(0%,0%,0%);stroke-opacity:1;stroke-miterlimit:10;" d="M 224 360 L 204 360 L 204 370 L 224 370 L 224 390 L 234 390 L 234 370 L 254 370 L 254 360 L 234 360 L 234 340 L 224 340 L 224 360 "/>
<path style="fill-rule:nonzero;fill:rgb(55%,51%,53%);fill-opacity:1;stroke-width:1;stroke-linecap:butt;stroke-linejoin:miter;stroke:rgb(0%,0%,0%);stroke-opacity:1;stroke-miterlimit:10;" d="M 74 246 L 54 246 L 54 256 L 74 256 L 74 276 L 84 276 L 84 256 L 104 256 L 104 246 L 84 246 L 84 226 L 74 226 L 74 246 "/>
<path style="fill-rule:nonzero;fill:rgb(55%,51%,53%);fill-opacity:1;stroke-width:1;stroke-linecap:butt;stroke-linejoin:miter;stroke:rgb(0%,0%,0%);stroke-opacity:1;stroke-miterlimit:10;" d="M 201 272 L 181 272 L 181 282 L 201 282 L 201 302 L 211 302 L 211 282 L 231 282 L 231 272 L 211 272 L 211 252 L 201 252 L 201 272 "/>
<path style="fill-rule:nonzero;fill:rgb(55%,51%,53%);fill-opacity:1;stroke-width:1;stroke-linecap:butt;stroke-linejoin:miter;stroke:rgb(0%,0%,0%);stroke-opacity:1;stroke-miterlimit:10;" d="M 300 157 L 280 157 L 280 167 L 300 167 L 300 187 L 310 187 L 310 167 L 330 167 L 330 157 L 310 157 L 310 137 L 300 137 L 300 157 "/>
<path style="fill-rule:nonzero;fill:rgb(67%,100%,18%);fill-opacity:1;stroke-width:1;stroke-linecap:butt;stroke-linejoin:miter;stroke:rgb(0%,0%,0%);stroke-opacity:1;stroke-miterlimit:10;" d="M 370 270 L 350 270 L 350 280 L 370 280 L 370 300 L 380 300 L 380 280 L 400 280 L 400 270 L 380 270 L 380 250 L 370 250 L 370 270 "/>
<path style="fill-rule:nonzero;fill:rgb(67%,100%,18%);fill-opacity:1;stroke-width:1;stroke-linecap:butt;stroke-linejoin:miter;stroke:rgb(0%,0%,0%);stroke-opacity:1;stroke-miterlimit:10;" d="M 447 446 L 427 446 L 427 456 L 447 456 L 447 476 L 457 476 L 457 456 L 477 456 L 477 446 L 457 446 L 457 426 L 447 426 L 447 446 "/>
<path style="fill-rule:nonzero;fill:rgb(55%,51%,53%);fill-opacity:1;stroke-width:1;stroke-linecap:butt;stroke-linejoin:miter;stroke:rgb(0%,0%,0%);stroke-opacity:1;stroke-miterlimit:10;" d="M 907.785156 33.785156 L 907.785156 76.214844 L 950.214844 76.214844 L 950.214844 33.785156 L 907.785156 33.785156 "/>
<path style="fill-rule:nonzero;fill:rgb(55%,51%,53%);fill-opacity:1;stroke-width:1;stroke-linecap:butt;stroke-linejoin:miter;stroke:rgb(0%,0%,0%);stroke-opacity:1;stroke-miterlimit:10;" d="M 1005.785156 108.785156 L 1005.785156 151.214844 L 1048.214844 151.214844 L 1048.214844 108.785156 L 1005.785156 108.785156 "/>
<path style="fill-rule:nonzero;fill:rgb(67%,100%,18%);fill-opacity:1;stroke-width:1;stroke-linecap:butt;stroke-linejoin:miter;stroke:rgb(0%,0%,0%);stroke-opacity:1;stroke-miterlimit:10;" d="M 797.785156 428.785156 L 797.785156 471.214844 L 840.214844 471.214844 L 840.214844 428.785156 L 797.785156 428.785156 "/>
<path style="fill-rule:nonzero;fill:rgb(67%,100%,18%);fill-opacity:1;stroke-width:1;stroke-linecap:butt;stroke-linejoin:miter;stroke:rgb(0%,0%,0%);stroke-opacity:1;stroke-miterlimit:10;" d="M 1012.785156 373.785156 L 1012.785156 416.214844 L 1055.214844 416.214844 L 1055.214844 373.785156 L 1012.785156 373.785156 "/>
</g>
</svg>
