<?xml version="1.0" encoding="UTF-8"?>
<svg xmlns="http://www.w3.org/2000/svg" xmlns:xlink="http://www.w3.org/1999/xlink" width="1129pt" height="517pt" viewBox="0 0 1129 517" version="1.1">
<g id="surface541">
<rect x="0" y="0" width="1129" height="517" style="fill:rgb(90%,90%,90%);fill-opacity:1;stroke:none;"/>
<path style="fill-rule:nonzero;fill:rgb(100%,51%,0%);fill-opacity:1;stroke-width:1;stroke-linecap:butt;stroke-linejoin:miter;stroke:rgb(0%,0%,0%);stroke-opacity:1;stroke-miterlimit:10;" d="M 76 429.601562 C 76 415.199219 52 415.199219 52 429.601562 C 52 444 76 446.398438 76 458.398438 C 76 446.398438 100 444 100 429.601562 C 100 415.199219 76 415.199219 76 429.601562 "/>
<path style="fill-rule:nonzero;fill:rgb(100%,51%,0%);fill-opacity:1;stroke-width:1;stroke-linecap:butt;stroke-linejoin:miter;stroke:rgb(0%,0%,0%);stroke-opacity:1;stroke-miterlimit:10;" d="M 279 341.601562 C 279 327.199219 255 327.199219 255 341.601562 C 255 356 279 358.398438 279 370.398438 C 279 358.398438 303 356 303 341.601562 C 303 327.199219 279 327.199219 279 341.601562 "/>
<path style="fill-rule:nonzero;fill:rgb(100%,51%,0%);fill-opacity:1;stroke-width:1;stroke-linecap:butt;stroke-linejoin:miter;stroke:rgb(0%,0%,0%);stroke-opacity:1;stroke-miterlimit:10;" d="M 410 294.601562 C 410 280.199219 386 280.199219 386 294.601562 C 386 309 410 311.398438 410 323.398438 C 410 311.398438 434 309 434 294.601562 C 434 280.199219 410 280.199219 410 294.601562 "/>
<path style="fill-rule:nonzero;fill:rgb(0%,0%,0%);fill-opacity:1;stroke-width:1;stroke-linecap:butt;stroke-linejoin:miter;stroke:rgb(0%,0%,0%);stroke-opacity:1;stroke-miterlimit:10;" d="M 131 172.601562 C 131 158.199219 107 158.199219 107 172.601562 C 107 187 131 189.398438 131 201.398438 C 131 189.398438 155 187 155 172.601562 C 155 158.199219 131 158.199219 131 172.601562 "/>
<path style="fill-rule:nonzero;fill:rgb(100%,51%,0%);fill-opacity:1;stroke-width:1;stroke-linecap:butt;stroke-linejoin:miter;stroke:rgb(0%,0%,0%);stroke-opacity:1;stroke-miterlimit:10;" d="M 691 71 L 665.019531 116 L 716.980469 116 L 691 71 "/>
<path style="fill-rule:nonzero;fill:rgb(100%,51%,0%);fill-opacity:1;stroke-width:1;stroke-linecap:butt;stroke-linejoin:miter;stroke:rgb(0%,0%,0%);stroke-opacity:1;stroke-miterlimit:10;" d="M 793 11 L 767.019531 56 L 818.980469 56 L 793 11 "/>
<path style="fill-rule:nonzero;fill:rgb(100%,51%,0%);fill-opacity:1;stroke-width:1;stroke-linecap:butt;stroke-linejoin:miter;stroke:rgb(0%,0%,0%);stroke-opacity:1;stroke-miterlimit:10;" d="M 1016 16 L 990.019531 61 L 1041.980469 61 L 1016 16 "/>
<path style="fill-rule:nonzero;fill:rgb(0%,0%,0%);fill-opacity:1;stroke-width:1;stroke-linecap:butt;stroke-linejoin:miter;stroke:rgb(0%,0%,0%);stroke-opacity:1;stroke-miterlimit:10;" d="M 870 89 L 844.019531 134 L 895.980469 134 L 870 89 "/>
<path style="fill-rule:nonzero;fill:rgb(0%,0%,0%);fill-opacity:1;stroke-width:1;stroke-linecap:butt;stroke-linejoin:miter;stroke:rgb(0%,0%,0%);stroke-opacity:1;stroke-miterlimit:10;" d="M 836 180 L 810.019531 225 L 861.980469 225 L 836 180 "/>
<path style="fill-rule:nonzero;fill:rgb(0%,0%,0%);fill-opacity:1;stroke-width:1;stroke-linecap:butt;stroke-linejoin:miter;stroke:rgb(0%,0%,0%);stroke-opacity:1;stroke-miterlimit:10;" d="M 705 262 L 679.019531 307 L 730.980469 307 L 705 262 "/>
</g>
</svg>
