<?xml version="1.0" encoding="UTF-8"?>
<svg xmlns="http://www.w3.org/2000/svg" xmlns:xlink="http://www.w3.org/1999/xlink" width="1129pt" height="517pt" viewBox="0 0 1129 517" version="1.1">
<g id="surface3766">
<rect x="0" y="0" width="1129" height="517" style="fill:rgb(90%,90%,90%);fill-opacity:1;stroke:none;"/>
<path style="fill-rule:nonzero;fill:rgb(25%,88%,82%);fill-opacity:1;stroke-width:1;stroke-linecap:butt;stroke-linejoin:miter;stroke:rgb(0%,0%,0%);stroke-opacity:1;stroke-miterlimit:10;" d="M 343 104.601562 C 343 90.199219 319 90.199219 319 104.601562 C 319 119 343 121.398438 343 133.398438 C 343 121.398438 367 119 367 104.601562 C 367 90.199219 343 90.199219 343 104.601562 "/>
<path style="fill-rule:nonzero;fill:rgb(25%,88%,82%);fill-opacity:1;stroke-width:1;stroke-linecap:butt;stroke-linejoin:miter;stroke:rgb(0%,0%,0%);stroke-opacity:1;stroke-miterlimit:10;" d="M 396 222.601562 C 396 208.199219 372 208.199219 372 222.601562 C 372 237 396 239.398438 396 251.398438 C 396 239.398438 420 237 420 222.601562 C 420 208.199219 396 208.199219 396 222.601562 "/>
<path style="fill-rule:nonzero;fill:rgb(25%,88%,82%);fill-opacity:1;stroke-width:1;stroke-linecap:butt;stroke-linejoin:miter;stroke:rgb(0%,0%,0%);stroke-opacity:1;stroke-miterlimit:10;" d="M 83 224.601562 C 83 210.199219 59 210.199219 59 224.601562 C 59 239 83 241.398438 83 253.398438 C 83 241.398438 107 239 107 224.601562 C 107 210.199219 83 210.199219 83 224.601562 "/>
<path style="fill-rule:nonzero;fill:rgb(25%,88%,82%);fill-opacity:1;stroke-width:1;stroke-linecap:butt;stroke-linejoin:miter;stroke:rgb(0%,0%,0%);stroke-opacity:1;stroke-miterlimit:10;" d="M 368 433.601562 C 368 419.199219 344 419.199219 344 433.601562 C 344 448 368 450.398438 368 462.398438 C 368 450.398438 392 448 392 433.601562 C 392 419.199219 368 419.199219 368 433.601562 "/>
<path style="fill-rule:nonzero;fill:rgb(25%,88%,82%);fill-opacity:1;stroke-width:1;stroke-linecap:butt;stroke-linejoin:miter;stroke:rgb(0%,0%,0%);stroke-opacity:1;stroke-miterlimit:10;" d="M 258 151.601562 C 258 137.199219 234 137.199219 234 151.601562 C 234 166 258 168.398438 258 180.398438 C 258 168.398438 282 166 282 151.601562 C 282 137.199219 258 137.199219 258 151.601562 "/>
<path style="fill-rule:nonzero;fill:rgb(25%,88%,82%);fill-opacity:1;stroke-width:1;stroke-linecap:butt;stroke-linejoin:miter;stroke:rgb(0%,0%,0%);stroke-opacity:1;stroke-miterlimit:10;" d="M 147 145.601562 C 147 131.199219 123 131.199219 123 145.601562 C 123 160 147 162.398438 147 174.398438 C 147 162.398438 171 160 171 145.601562 C 171 131.199219 147 131.199219 147 145.601562 "/>
<path style="fill-rule:nonzero;fill:rgb(35%,70%,90%);fill-opacity:1;stroke-width:1;stroke-linecap:butt;stroke-linejoin:miter;stroke:rgb(0%,0%,0%);stroke-opacity:1;stroke-miterlimit:10;" d="M 247 301.601562 C 247 287.199219 223 287.199219 223 301.601562 C 223 316 247 318.398438 247 330.398438 C 247 318.398438 271 316 271 301.601562 C 271 287.199219 247 287.199219 247 301.601562 "/>
<path style="fill-rule:nonzero;fill:rgb(35%,70%,90%);fill-opacity:1;stroke-width:1;stroke-linecap:butt;stroke-linejoin:miter;stroke:rgb(0%,0%,0%);stroke-opacity:1;stroke-miterlimit:10;" d="M 166 447.601562 C 166 433.199219 142 433.199219 142 447.601562 C 142 462 166 464.398438 166 476.398438 C 166 464.398438 190 462 190 447.601562 C 190 433.199219 166 433.199219 166 447.601562 "/>
<path style="fill-rule:nonzero;fill:rgb(25%,88%,82%);fill-opacity:1;stroke-width:1;stroke-linecap:butt;stroke-linejoin:miter;stroke:rgb(0%,0%,0%);stroke-opacity:1;stroke-miterlimit:10;" d="M 910 394 L 884.019531 439 L 935.980469 439 L 910 394 "/>
<path style="fill-rule:nonzero;fill:rgb(25%,88%,82%);fill-opacity:1;stroke-width:1;stroke-linecap:butt;stroke-linejoin:miter;stroke:rgb(0%,0%,0%);stroke-opacity:1;stroke-miterlimit:10;" d="M 1043 357 L 1017.019531 402 L 1068.980469 402 L 1043 357 "/>
<path style="fill-rule:nonzero;fill:rgb(25%,88%,82%);fill-opacity:1;stroke-width:1;stroke-linecap:butt;stroke-linejoin:miter;stroke:rgb(0%,0%,0%);stroke-opacity:1;stroke-miterlimit:10;" d="M 732 39 L 706.019531 84 L 757.980469 84 L 732 39 "/>
<path style="fill-rule:nonzero;fill:rgb(35%,70%,90%);fill-opacity:1;stroke-width:1;stroke-linecap:butt;stroke-linejoin:miter;stroke:rgb(0%,0%,0%);stroke-opacity:1;stroke-miterlimit:10;" d="M 821 376 L 795.019531 421 L 846.980469 421 L 821 376 "/>
<path style="fill-rule:nonzero;fill:rgb(35%,70%,90%);fill-opacity:1;stroke-width:1;stroke-linecap:butt;stroke-linejoin:miter;stroke:rgb(0%,0%,0%);stroke-opacity:1;stroke-miterlimit:10;" d="M 778 138 L 752.019531 183 L 803.980469 183 L 778 138 "/>
<path style="fill-rule:nonzero;fill:rgb(35%,70%,90%);fill-opacity:1;stroke-width:1;stroke-linecap:butt;stroke-linejoin:miter;stroke:rgb(0%,0%,0%);stroke-opacity:1;stroke-miterlimit:10;" d="M 684 322 L 658.019531 367 L 709.980469 367 L 684 322 "/>
<path style="fill-rule:nonzero;fill:rgb(35%,70%,90%);fill-opacity:1;stroke-width:1;stroke-linecap:butt;stroke-linejoin:miter;stroke:rgb(0%,0%,0%);stroke-opacity:1;stroke-miterlimit:10;" d="M 800 265 L 774.019531 310 L 825.980469 310 L 800 265 "/>
<path style="fill-rule:nonzero;fill:rgb(35%,70%,90%);fill-opacity:1;stroke-width:1;stroke-linecap:butt;stroke-linejoin:miter;stroke:rgb(0%,0%,0%);stroke-opacity:1;stroke-miterlimit:10;" d="M 1051 155 L 1025.019531 200 L 1076.980469 200 L 1051 155 "/>
</g>
</svg>
