<?xml version="1.0" encoding="UTF-8"?>
<svg xmlns="http://www.w3.org/2000/svg" xmlns:xlink="http://www.w3.org/1999/xlink" width="1129pt" height="517pt" viewBox="0 0 1129 517" version="1.1">
<g id="surface3596">
<rect x="0" y="0" width="1129" height="517" style="fill:rgb(90%,90%,90%);fill-opacity:1;stroke:none;"/>
<path style="fill-rule:nonzero;fill:rgb(100%,100%,0%);fill-opacity:1;stroke-width:1;stroke-linecap:butt;stroke-linejoin:miter;stroke:rgb(0%,0%,0%);stroke-opacity:1;stroke-miterlimit:10;" d="M 189.785156 305.785156 L 189.785156 348.214844 L 232.214844 348.214844 L 232.214844 305.785156 L 189.785156 305.785156 "/>
<path style="fill-rule:nonzero;fill:rgb(100%,100%,0%);fill-opacity:1;stroke-width:1;stroke-linecap:butt;stroke-linejoin:miter;stroke:rgb(0%,0%,0%);stroke-opacity:1;stroke-miterlimit:10;" d="M 59.785156 186.785156 L 59.785156 229.214844 L 102.214844 229.214844 L 102.214844 186.785156 L 59.785156 186.785156 "/>
<path style="fill-rule:nonzero;fill:rgb(100%,100%,0%);fill-opacity:1;stroke-width:1;stroke-linecap:butt;stroke-linejoin:miter;stroke:rgb(0%,0%,0%);stroke-opacity:1;stroke-miterlimit:10;" d="M 285.785156 187.785156 L 285.785156 230.214844 L 328.214844 230.214844 L 328.214844 187.785156 L 285.785156 187.785156 "/>
<path style="fill-rule:nonzero;fill:rgb(0%,0%,0%);fill-opacity:1;stroke-width:1;stroke-linecap:butt;stroke-linejoin:miter;stroke:rgb(0%,0%,0%);stroke-opacity:1;stroke-miterlimit:10;" d="M 360.785156 262.785156 L 360.785156 305.214844 L 403.214844 305.214844 L 403.214844 262.785156 L 360.785156 262.785156 "/>
<path style="fill-rule:nonzero;fill:rgb(0%,0%,0%);fill-opacity:1;stroke-width:1;stroke-linecap:butt;stroke-linejoin:miter;stroke:rgb(0%,0%,0%);stroke-opacity:1;stroke-miterlimit:10;" d="M 417.785156 162.785156 L 417.785156 205.214844 L 460.214844 205.214844 L 460.214844 162.785156 L 417.785156 162.785156 "/>
<path style="fill-rule:nonzero;fill:rgb(0%,0%,0%);fill-opacity:1;stroke-width:1;stroke-linecap:butt;stroke-linejoin:miter;stroke:rgb(0%,0%,0%);stroke-opacity:1;stroke-miterlimit:10;" d="M 99.785156 405.785156 L 99.785156 448.214844 L 142.214844 448.214844 L 142.214844 405.785156 L 99.785156 405.785156 "/>
<path style="fill-rule:nonzero;fill:rgb(0%,0%,0%);fill-opacity:1;stroke-width:1;stroke-linecap:butt;stroke-linejoin:miter;stroke:rgb(0%,0%,0%);stroke-opacity:1;stroke-miterlimit:10;" d="M 199.785156 155.785156 L 199.785156 198.214844 L 242.214844 198.214844 L 242.214844 155.785156 L 199.785156 155.785156 "/>
<path style="fill-rule:nonzero;fill:rgb(0%,0%,0%);fill-opacity:1;stroke-width:1;stroke-linecap:butt;stroke-linejoin:miter;stroke:rgb(0%,0%,0%);stroke-opacity:1;stroke-miterlimit:10;" d="M 159.785156 41.785156 L 159.785156 84.214844 L 202.214844 84.214844 L 202.214844 41.785156 L 159.785156 41.785156 "/>
<path style="fill-rule:nonzero;fill:rgb(100%,100%,0%);fill-opacity:1;stroke-width:1;stroke-linecap:butt;stroke-linejoin:miter;stroke:rgb(0%,0%,0%);stroke-opacity:1;stroke-miterlimit:10;" d="M 796 82 L 776 82 L 776 92 L 796 92 L 796 112 L 806 112 L 806 92 L 826 92 L 826 82 L 806 82 L 806 62 L 796 62 L 796 82 "/>
<path style="fill-rule:nonzero;fill:rgb(100%,100%,0%);fill-opacity:1;stroke-width:1;stroke-linecap:butt;stroke-linejoin:miter;stroke:rgb(0%,0%,0%);stroke-opacity:1;stroke-miterlimit:10;" d="M 857 186 L 837 186 L 837 196 L 857 196 L 857 216 L 867 216 L 867 196 L 887 196 L 887 186 L 867 186 L 867 166 L 857 166 L 857 186 "/>
<path style="fill-rule:nonzero;fill:rgb(100%,100%,0%);fill-opacity:1;stroke-width:1;stroke-linecap:butt;stroke-linejoin:miter;stroke:rgb(0%,0%,0%);stroke-opacity:1;stroke-miterlimit:10;" d="M 647 375 L 627 375 L 627 385 L 647 385 L 647 405 L 657 405 L 657 385 L 677 385 L 677 375 L 657 375 L 657 355 L 647 355 L 647 375 "/>
<path style="fill-rule:nonzero;fill:rgb(100%,100%,0%);fill-opacity:1;stroke-width:1;stroke-linecap:butt;stroke-linejoin:miter;stroke:rgb(0%,0%,0%);stroke-opacity:1;stroke-miterlimit:10;" d="M 720 318 L 700 318 L 700 328 L 720 328 L 720 348 L 730 348 L 730 328 L 750 328 L 750 318 L 730 318 L 730 298 L 720 298 L 720 318 "/>
<path style="fill-rule:nonzero;fill:rgb(0%,0%,0%);fill-opacity:1;stroke-width:1;stroke-linecap:butt;stroke-linejoin:miter;stroke:rgb(0%,0%,0%);stroke-opacity:1;stroke-miterlimit:10;" d="M 1053 442 L 1033 442 L 1033 452 L 1053 452 L 1053 472 L 1063 472 L 1063 452 L 1083 452 L 1083 442 L 1063 442 L 1063 422 L 1053 422 L 1053 442 "/>
<path style="fill-rule:nonzero;fill:rgb(0%,0%,0%);fill-opacity:1;stroke-width:1;stroke-linecap:butt;stroke-linejoin:miter;stroke:rgb(0%,0%,0%);stroke-opacity:1;stroke-miterlimit:10;" d="M 882 44 L 862 44 L 862 54 L 882 54 L 882 74 L 892 74 L 892 54 L 912 54 L 912 44 L 892 44 L 892 24 L 882 24 L 882 44 "/>
<path style="fill-rule:nonzero;fill:rgb(0%,0%,0%);fill-opacity:1;stroke-width:1;stroke-linecap:butt;stroke-linejoin:miter;stroke:rgb(0%,0%,0%);stroke-opacity:1;stroke-miterlimit:10;" d="M 977 374 L 957 374 L 957 384 L 977 384 L 977 404 L 987 404 L 987 384 L 1007 384 L 1007 374 L 987 374 L 987 354 L 977 354 L 977 374 "/>
<path style="fill-rule:nonzero;fill:rgb(0%,0%,0%);fill-opacity:1;stroke-width:1;stroke-linecap:butt;stroke-linejoin:miter;stroke:rgb(0%,0%,0%);stroke-opacity:1;stroke-miterlimit:10;" d="M 663 50 L 643 50 L 643 60 L 663 60 L 663 80 L 673 80 L 673 60 L 693 60 L 693 50 L 673 50 L 673 30 L 663 30 L 663 50 "/>
</g>
</svg>
