<?xml version="1.0" encoding="UTF-8"?>
<svg xmlns="http://www.w3.org/2000/svg" xmlns:xlink="http://www.w3.org/1999/xlink" width="1129pt" height="517pt" viewBox="0 0 1129 517" version="1.1">
<g id="surface3731">
<rect x="0" y="0" width="1129" height="517" style="fill:rgb(90%,90%,90%);fill-opacity:1;stroke:none;"/>
<path style="fill-rule:nonzero;fill:rgb(100%,51%,0%);fill-opacity:1;stroke-width:1;stroke-linecap:butt;stroke-linejoin:miter;stroke:rgb(0%,0%,0%);stroke-opacity:1;stroke-miterlimit:10;" d="M 315 104 L 289.019531 149 L 340.980469 149 L 315 104 "/>
<path style="fill-rule:nonzero;fill:rgb(0%,0%,0%);fill-opacity:1;stroke-width:1;stroke-linecap:butt;stroke-linejoin:miter;stroke:rgb(0%,0%,0%);stroke-opacity:1;stroke-miterlimit:10;" d="M 151 397 L 125.019531 442 L 176.980469 442 L 151 397 "/>
<path style="fill-rule:nonzero;fill:rgb(0%,0%,0%);fill-opacity:1;stroke-width:1;stroke-linecap:butt;stroke-linejoin:miter;stroke:rgb(0%,0%,0%);stroke-opacity:1;stroke-miterlimit:10;" d="M 264 267 L 238.019531 312 L 289.980469 312 L 264 267 "/>
<path style="fill-rule:nonzero;fill:rgb(0%,0%,0%);fill-opacity:1;stroke-width:1;stroke-linecap:butt;stroke-linejoin:miter;stroke:rgb(0%,0%,0%);stroke-opacity:1;stroke-miterlimit:10;" d="M 404 199 L 378.019531 244 L 429.980469 244 L 404 199 "/>
<path style="fill-rule:nonzero;fill:rgb(0%,0%,0%);fill-opacity:1;stroke-width:1;stroke-linecap:butt;stroke-linejoin:miter;stroke:rgb(0%,0%,0%);stroke-opacity:1;stroke-miterlimit:10;" d="M 170 165 L 144.019531 210 L 195.980469 210 L 170 165 "/>
<path style="fill-rule:nonzero;fill:rgb(0%,0%,0%);fill-opacity:1;stroke-width:1;stroke-linecap:butt;stroke-linejoin:miter;stroke:rgb(0%,0%,0%);stroke-opacity:1;stroke-miterlimit:10;" d="M 207 31 L 181.019531 76 L 232.980469 76 L 207 31 "/>
<path style="fill-rule:nonzero;fill:rgb(0%,0%,0%);fill-opacity:1;stroke-width:1;stroke-linecap:butt;stroke-linejoin:miter;stroke:rgb(0%,0%,0%);stroke-opacity:1;stroke-miterlimit:10;" d="M 95 217 L 69.019531 262 L 120.980469 262 L 95 217 "/>
<path style="fill-rule:nonzero;fill:rgb(0%,0%,0%);fill-opacity:1;stroke-width:1;stroke-linecap:butt;stroke-linejoin:miter;stroke:rgb(0%,0%,0%);stroke-opacity:1;stroke-miterlimit:10;" d="M 463 436 L 437.019531 481 L 488.980469 481 L 463 436 "/>
<path style="fill-rule:nonzero;fill:rgb(100%,51%,0%);fill-opacity:1;stroke-width:1;stroke-linecap:butt;stroke-linejoin:miter;stroke:rgb(0%,0%,0%);stroke-opacity:1;stroke-miterlimit:10;" d="M 1075 244.601562 C 1075 230.199219 1051 230.199219 1051 244.601562 C 1051 259 1075 261.398438 1075 273.398438 C 1075 261.398438 1099 259 1099 244.601562 C 1099 230.199219 1075 230.199219 1075 244.601562 "/>
<path style="fill-rule:nonzero;fill:rgb(100%,51%,0%);fill-opacity:1;stroke-width:1;stroke-linecap:butt;stroke-linejoin:miter;stroke:rgb(0%,0%,0%);stroke-opacity:1;stroke-miterlimit:10;" d="M 960 451.601562 C 960 437.199219 936 437.199219 936 451.601562 C 936 466 960 468.398438 960 480.398438 C 960 468.398438 984 466 984 451.601562 C 984 437.199219 960 437.199219 960 451.601562 "/>
<path style="fill-rule:nonzero;fill:rgb(100%,51%,0%);fill-opacity:1;stroke-width:1;stroke-linecap:butt;stroke-linejoin:miter;stroke:rgb(0%,0%,0%);stroke-opacity:1;stroke-miterlimit:10;" d="M 826 395.601562 C 826 381.199219 802 381.199219 802 395.601562 C 802 410 826 412.398438 826 424.398438 C 826 412.398438 850 410 850 395.601562 C 850 381.199219 826 381.199219 826 395.601562 "/>
<path style="fill-rule:nonzero;fill:rgb(100%,51%,0%);fill-opacity:1;stroke-width:1;stroke-linecap:butt;stroke-linejoin:miter;stroke:rgb(0%,0%,0%);stroke-opacity:1;stroke-miterlimit:10;" d="M 734 73.601562 C 734 59.199219 710 59.199219 710 73.601562 C 710 88 734 90.398438 734 102.398438 C 734 90.398438 758 88 758 73.601562 C 758 59.199219 734 59.199219 734 73.601562 "/>
<path style="fill-rule:nonzero;fill:rgb(100%,51%,0%);fill-opacity:1;stroke-width:1;stroke-linecap:butt;stroke-linejoin:miter;stroke:rgb(0%,0%,0%);stroke-opacity:1;stroke-miterlimit:10;" d="M 826 220.601562 C 826 206.199219 802 206.199219 802 220.601562 C 802 235 826 237.398438 826 249.398438 C 826 237.398438 850 235 850 220.601562 C 850 206.199219 826 206.199219 826 220.601562 "/>
<path style="fill-rule:nonzero;fill:rgb(100%,51%,0%);fill-opacity:1;stroke-width:1;stroke-linecap:butt;stroke-linejoin:miter;stroke:rgb(0%,0%,0%);stroke-opacity:1;stroke-miterlimit:10;" d="M 669 208.601562 C 669 194.199219 645 194.199219 645 208.601562 C 645 223 669 225.398438 669 237.398438 C 669 225.398438 693 223 693 208.601562 C 693 194.199219 669 194.199219 669 208.601562 "/>
<path style="fill-rule:nonzero;fill:rgb(100%,51%,0%);fill-opacity:1;stroke-width:1;stroke-linecap:butt;stroke-linejoin:miter;stroke:rgb(0%,0%,0%);stroke-opacity:1;stroke-miterlimit:10;" d="M 932 142.601562 C 932 128.199219 908 128.199219 908 142.601562 C 908 157 932 159.398438 932 171.398438 C 932 159.398438 956 157 956 142.601562 C 956 128.199219 932 128.199219 932 142.601562 "/>
<path style="fill-rule:nonzero;fill:rgb(100%,51%,0%);fill-opacity:1;stroke-width:1;stroke-linecap:butt;stroke-linejoin:miter;stroke:rgb(0%,0%,0%);stroke-opacity:1;stroke-miterlimit:10;" d="M 1012 51.601562 C 1012 37.199219 988 37.199219 988 51.601562 C 988 66 1012 68.398438 1012 80.398438 C 1012 68.398438 1036 66 1036 51.601562 C 1036 37.199219 1012 37.199219 1012 51.601562 "/>
<path style="fill-rule:nonzero;fill:rgb(100%,51%,0%);fill-opacity:1;stroke-width:1;stroke-linecap:butt;stroke-linejoin:miter;stroke:rgb(0%,0%,0%);stroke-opacity:1;stroke-miterlimit:10;" d="M 1029 345.601562 C 1029 331.199219 1005 331.199219 1005 345.601562 C 1005 360 1029 362.398438 1029 374.398438 C 1029 362.398438 1053 360 1053 345.601562 C 1053 331.199219 1029 331.199219 1029 345.601562 "/>
</g>
</svg>
