<?xml version="1.0" encoding="UTF-8"?>
<svg xmlns="http://www.w3.org/2000/svg" xmlns:xlink="http://www.w3.org/1999/xlink" width="1129pt" height="517pt" viewBox="0 0 1129 517" version="1.1">
<g id="surface3281">
<rect x="0" y="0" width="1129" height="517" style="fill:rgb(90%,90%,90%);fill-opacity:1;stroke:none;"/>
<path style="fill-rule:nonzero;fill:rgb(100%,100%,0%);fill-opacity:1;stroke-width:1;stroke-linecap:butt;stroke-linejoin:miter;stroke:rgb(0%,0%,0%);stroke-opacity:1;stroke-miterlimit:10;" d="M 342 384.601562 C 342 370.199219 318 370.199219 318 384.601562 C 318 399 342 401.398438 342 413.398438 C 342 401.398438 366 399 366 384.601562 C 366 370.199219 342 370.199219 342 384.601562 "/>
<path style="fill-rule:nonzero;fill:rgb(100%,100%,0%);fill-opacity:1;stroke-width:1;stroke-linecap:butt;stroke-linejoin:miter;stroke:rgb(0%,0%,0%);stroke-opacity:1;stroke-miterlimit:10;" d="M 371 209.601562 C 371 195.199219 347 195.199219 347 209.601562 C 347 224 371 226.398438 371 238.398438 C 371 226.398438 395 224 395 209.601562 C 395 195.199219 371 195.199219 371 209.601562 "/>
<path style="fill-rule:nonzero;fill:rgb(100%,100%,0%);fill-opacity:1;stroke-width:1;stroke-linecap:butt;stroke-linejoin:miter;stroke:rgb(0%,0%,0%);stroke-opacity:1;stroke-miterlimit:10;" d="M 223 270.601562 C 223 256.199219 199 256.199219 199 270.601562 C 199 285 223 287.398438 223 299.398438 C 223 287.398438 247 285 247 270.601562 C 247 256.199219 223 256.199219 223 270.601562 "/>
<path style="fill-rule:nonzero;fill:rgb(100%,100%,0%);fill-opacity:1;stroke-width:1;stroke-linecap:butt;stroke-linejoin:miter;stroke:rgb(0%,0%,0%);stroke-opacity:1;stroke-miterlimit:10;" d="M 399 102.601562 C 399 88.199219 375 88.199219 375 102.601562 C 375 117 399 119.398438 399 131.398438 C 399 119.398438 423 117 423 102.601562 C 423 88.199219 399 88.199219 399 102.601562 "/>
<path style="fill-rule:nonzero;fill:rgb(100%,100%,0%);fill-opacity:1;stroke-width:1;stroke-linecap:butt;stroke-linejoin:miter;stroke:rgb(0%,0%,0%);stroke-opacity:1;stroke-miterlimit:10;" d="M 91 91.601562 C 91 77.199219 67 77.199219 67 91.601562 C 67 106 91 108.398438 91 120.398438 C 91 108.398438 115 106 115 91.601562 C 115 77.199219 91 77.199219 91 91.601562 "/>
<path style="fill-rule:nonzero;fill:rgb(25%,88%,82%);fill-opacity:1;stroke-width:1;stroke-linecap:butt;stroke-linejoin:miter;stroke:rgb(0%,0%,0%);stroke-opacity:1;stroke-miterlimit:10;" d="M 1035 311 L 1009.019531 356 L 1060.980469 356 L 1035 311 "/>
<path style="fill-rule:nonzero;fill:rgb(25%,88%,82%);fill-opacity:1;stroke-width:1;stroke-linecap:butt;stroke-linejoin:miter;stroke:rgb(0%,0%,0%);stroke-opacity:1;stroke-miterlimit:10;" d="M 1050 63 L 1024.019531 108 L 1075.980469 108 L 1050 63 "/>
<path style="fill-rule:nonzero;fill:rgb(25%,88%,82%);fill-opacity:1;stroke-width:1;stroke-linecap:butt;stroke-linejoin:miter;stroke:rgb(0%,0%,0%);stroke-opacity:1;stroke-miterlimit:10;" d="M 946 254 L 920.019531 299 L 971.980469 299 L 946 254 "/>
<path style="fill-rule:nonzero;fill:rgb(25%,88%,82%);fill-opacity:1;stroke-width:1;stroke-linecap:butt;stroke-linejoin:miter;stroke:rgb(0%,0%,0%);stroke-opacity:1;stroke-miterlimit:10;" d="M 859 390 L 833.019531 435 L 884.980469 435 L 859 390 "/>
<path style="fill-rule:nonzero;fill:rgb(100%,100%,0%);fill-opacity:1;stroke-width:1;stroke-linecap:butt;stroke-linejoin:miter;stroke:rgb(0%,0%,0%);stroke-opacity:1;stroke-miterlimit:10;" d="M 729 359 L 703.019531 404 L 754.980469 404 L 729 359 "/>
</g>
</svg>
